<svg width="1200" height="900" viewBox="0 0 1200 900" fill="none" xmlns="http://www.w3.org/2000/svg">
  <rect width="1200" height="900" fill="#111111"/>
  <rect x="90" y="90" width="1020" height="720" rx="48" fill="#171717" stroke="#2A2A2A" stroke-width="4"/>
  <path d="M332 531C407 521 472 490 547 429C593 392 660 381 721 409L835 462C886 486 914 540 904 595C899 622 880 645 854 659C781 699 691 726 592 739C525 748 458 737 397 707C350 684 305 675 264 668C222 660 194 622 194 580C194 553 207 528 229 513C258 493 294 483 332 483H406" fill="#242424" stroke="#4A4A4A" stroke-width="10" stroke-linecap="round" stroke-linejoin="round"/>
  <path d="M339 529H463C509 529 556 517 596 495L716 430" stroke="#626262" stroke-width="8" stroke-linecap="round"/>
  <circle cx="824" cy="607" r="22" fill="#5A5A5A"/>
  <circle cx="760" cy="625" r="18" fill="#4F4F4F"/>
  <circle cx="696" cy="639" r="16" fill="#4A4A4A"/>
  <rect x="438" y="259" width="324" height="72" rx="36" fill="#00D1FF" fill-opacity="0.14" stroke="#00D1FF" stroke-opacity="0.45" stroke-width="2"/>
  <path d="M486 297H714" stroke="#00D1FF" stroke-opacity="0.55" stroke-width="4" stroke-linecap="round"/>
  <path d="M600 610L565 568H635L600 610Z" fill="#00D1FF" fill-opacity="0.6"/>
  <text x="600" y="310" fill="#D9F7FF" font-size="34" font-family="Arial, Helvetica, sans-serif" text-anchor="middle">Image Coming Soon</text>
</svg>
